<svg width="192" height="84" viewBox="0 0 192 84" fill="none" xmlns="http://www.w3.org/2000/svg">
<path fill-rule="evenodd" clip-rule="evenodd" d="M85.0424 24.5892H97.0254C97.135 24.576 97.2461 24.5879 97.3504 24.6239C97.4547 24.6599 97.5494 24.7192 97.6275 24.7972C97.7055 24.8753 97.7647 24.97 97.8008 25.0743C97.8368 25.1786 97.8486 25.2897 97.8354 25.3993V29.5214C97.8486 29.6309 97.8368 29.742 97.8008 29.8463C97.7647 29.9506 97.7055 30.0456 97.6275 30.1236C97.5495 30.2017 97.4547 30.2611 97.3504 30.2972C97.2461 30.3334 97.135 30.3454 97.0254 30.3324H85.0424V34.4694C84.9492 35.3395 85.1929 36.2123 85.7234 36.9083C86.0375 37.1717 86.4018 37.3685 86.7943 37.4869C87.1867 37.6054 87.5991 37.6429 88.0064 37.5973H92.3575C94.7494 37.623 97.141 37.5176 99.5215 37.2814C99.9785 37.2814 100.231 37.5423 100.231 38.1073C100.322 39.6117 100.138 41.12 99.6874 42.5582C99.6099 42.7442 99.4799 42.9037 99.3134 43.0172C99.1468 43.1307 98.9509 43.1933 98.7494 43.1974C96.9985 43.3802 95.2388 43.4655 93.4784 43.4532H87.9424C82.5204 43.4532 77.9944 42.1754 77.9614 34.6534V20.7084C77.9944 13.1864 82.5204 11.9083 87.9424 11.9083H93.4784C95.2388 11.8969 96.9985 11.9828 98.7494 12.1654C98.9508 12.1704 99.1464 12.2335 99.3128 12.347C99.4792 12.4606 99.6093 12.6196 99.6874 12.8053C100.138 14.2452 100.322 15.7553 100.231 17.2613C100.231 17.8273 99.9785 18.0863 99.5215 18.0863C97.141 17.85 94.7494 17.7446 92.3575 17.7704H88.0064C87.599 17.7246 87.1865 17.7621 86.794 17.8807C86.4015 17.9993 86.0373 18.1965 85.7234 18.4603C85.1927 19.1574 84.949 20.0311 85.0424 20.9022V24.5892ZM116.152 26.9122C120.668 26.9122 122.07 24.3894 122.07 21.9764C122.07 19.5634 120.47 17.4193 116.152 17.4193C114.362 17.4193 112.466 17.5792 112.466 17.5792V26.7543C112.466 26.7543 114.215 26.9122 116.152 26.9122ZM116.47 32.2423C114.483 32.2423 112.47 32.0843 112.47 32.0843V42.6454C112.483 42.755 112.471 42.866 112.435 42.9703C112.399 43.0746 112.34 43.1694 112.262 43.2474C112.184 43.3254 112.089 43.3845 111.984 43.4205C111.88 43.4566 111.769 43.4686 111.659 43.4554H106.396C106.287 43.4686 106.176 43.4566 106.071 43.4205C105.967 43.3845 105.872 43.3254 105.794 43.2474C105.716 43.1694 105.657 43.0746 105.621 42.9703C105.584 42.866 105.572 42.755 105.585 42.6454V13.9694C105.632 12.6224 105.977 12.3842 107.26 12.2042C109.336 11.9755 111.423 11.8728 113.51 11.8964H116.467C123.604 11.9314 129.025 14.9134 129.025 22.0724C129.107 23.8623 128.659 25.6364 127.737 27.1725C126.814 28.7086 125.459 29.9384 123.84 30.7074L130.973 42.5792C131.239 43.0242 131.061 43.4554 130.48 43.4554H124.086C123.839 43.4846 123.589 43.4361 123.371 43.317C123.153 43.1979 122.977 43.0139 122.867 42.7904L117.067 32.2342L116.47 32.2423ZM158.504 12.7274C158.674 12.8133 158.813 12.949 158.904 13.1163C158.994 13.2836 159.031 13.4743 159.009 13.6632C159.009 24.2072 153.003 37.2834 151.371 40.1344C150.08 42.3944 148.783 43.4554 146.564 43.4554H144.405C142.105 43.4554 140.805 42.3963 139.512 40.1363C137.88 37.2853 132.195 24.2094 132.195 13.6654C132.174 13.4765 132.211 13.2854 132.301 13.118C132.391 12.9507 132.531 12.8151 132.7 12.7294C133.8 12.0684 135.585 11.9144 138.648 11.9144C139.106 11.9144 139.448 12.0664 139.475 12.6244C139.875 23.0454 143.41 32.2984 145.848 37.6774C148.061 32.8664 151.819 23.3554 152.238 12.6244C152.258 12.0664 152.603 11.9144 153.063 11.9144C155.754 11.9144 157.455 12.0974 158.504 12.7294" fill="#223880"/>
<path d="M41.1296 0.0341837C54.0566 3.27018 63.5926 14.4953 63.5926 27.8433C63.5926 41.1913 54.0566 52.4073 41.1296 55.6433C40.9095 55.705 40.6745 55.685 40.4679 55.5872C40.2613 55.4893 40.097 55.32 40.0054 55.1106C39.9137 54.9012 39.9008 54.6657 39.969 54.4475C40.0372 54.2293 40.182 54.043 40.3766 53.9231C44.8129 51.1676 48.4732 47.3262 51.0112 42.762C53.5493 38.1977 54.8813 33.0616 54.8813 27.8391C54.8813 22.6167 53.5493 17.4807 51.0112 12.9165C48.4732 8.35228 44.8129 4.51063 40.3766 1.75513C40.182 1.63524 40.0372 1.44915 39.969 1.23096C39.9008 1.01277 39.9137 0.777291 40.0054 0.567875C40.097 0.358459 40.2613 0.18919 40.4679 0.0913126C40.6745 -0.00656467 40.9095 -0.026532 41.1296 0.0351603" fill="#BEB400"/>
<path d="M44.9795 26.748C45.2249 31.8815 43.7061 36.9443 40.6754 41.095C37.6447 45.2456 33.2848 48.2343 28.3204 49.5637C23.3559 50.8932 18.086 50.4834 13.3866 48.4028C8.68724 46.3223 4.84146 42.6961 2.48853 38.127C5.57153 42.768 15.4725 44.283 26.1435 41.427C36.8145 38.571 44.6305 32.311 44.9795 26.749" fill="#223880"/>
<path d="M0.596528 32.9473L0.528535 32.6643C-0.0570519 30.0197 -0.157024 27.2905 0.233522 24.6101C0.248495 24.7027 0.268178 24.7947 0.292512 24.8853C1.34751 28.8213 11.1485 29.6143 22.1865 26.6562C33.2245 23.6982 41.3165 18.1113 40.2635 14.1753C40.2392 14.0841 40.2098 13.9942 40.1755 13.9062C41.8542 16.0337 43.1329 18.4482 43.9495 21.0322L44.0325 21.3113C45.6985 27.5323 37.3325 35.1761 25.3325 38.3901C13.3325 41.6041 2.26454 39.1643 0.597535 32.9473" fill="#223880"/>
<path d="M1.04749 22.3009C0.926307 21.8102 0.952766 21.2945 1.12351 20.8188C2.28963 17.2672 4.32224 14.0623 7.03772 11.4933C9.7532 8.92432 13.0659 7.07224 16.6767 6.10465C20.2874 5.13706 24.0823 5.08444 27.7185 5.95133C31.3548 6.81822 34.7177 8.57743 37.5035 11.07C37.8892 11.3975 38.1696 11.8315 38.3095 12.3178C39.2395 15.7838 31.6525 20.8308 21.3615 23.5878C11.0705 26.3448 1.97749 25.7699 1.04749 22.3009Z" fill="#223880"/>
<path d="M8.60965 71.0935H5.71564V80.6045C5.71917 80.6788 5.69304 80.7515 5.64297 80.8066C5.59291 80.8617 5.52302 80.8948 5.44864 80.8984H4.63165C4.5578 80.8943 4.48859 80.861 4.43927 80.8059C4.38995 80.7507 4.36456 80.6783 4.36865 80.6045V71.0935H1.47464C1.31264 71.0935 1.18164 71.0194 1.18164 70.8574V70.2065C1.18578 70.1327 1.21889 70.0636 1.27377 70.0141C1.32865 69.9647 1.40085 69.9388 1.47464 69.9423H8.60965C8.64589 69.9392 8.68238 69.9438 8.71674 69.9558C8.75109 69.9677 8.78254 69.9868 8.80905 70.0117C8.83556 70.0366 8.85652 70.0668 8.87057 70.1003C8.88463 70.1339 8.89149 70.1701 8.89066 70.2065V70.8574C8.89066 71.0074 8.77365 71.0935 8.60965 71.0935Z" fill="#223880"/>
<path d="M13.4886 81.6343C13.0246 83.2273 12.4766 83.8181 10.7736 83.8181C10.3549 83.8163 9.93745 83.7725 9.52755 83.6873C9.34655 83.6413 9.21554 83.5942 9.21554 83.4482V82.9082C9.21554 82.7292 9.34656 82.6551 9.54156 82.6711C9.86756 82.7001 10.5365 82.7583 10.8615 82.7583C11.7025 82.7583 12.0786 82.5401 12.3306 81.5061L12.4766 80.9001H12.2675C11.8255 80.9001 11.4425 80.8003 11.1735 79.8823L9.20056 73.1443C9.1816 73.1044 9.17361 73.0601 9.17745 73.0161C9.1813 72.9721 9.19682 72.93 9.22241 72.894C9.24799 72.8581 9.28271 72.8296 9.32299 72.8115C9.36327 72.7934 9.40764 72.7864 9.45153 72.7913H10.2685C10.3288 72.8006 10.3849 72.8276 10.4298 72.8689C10.4746 72.9102 10.5062 72.9639 10.5205 73.0232L12.2675 79.4231C12.3455 79.7171 12.4455 79.7483 12.5505 79.7483H12.7866L14.5985 73.0093C14.6139 72.9471 14.6494 72.8915 14.6995 72.8516C14.7496 72.8116 14.8115 72.7893 14.8755 72.7881H15.7075C15.7492 72.7886 15.79 72.7995 15.8264 72.8196C15.8629 72.8397 15.8938 72.8686 15.9164 72.9036C15.939 72.9385 15.9525 72.9785 15.9559 73.02C15.9592 73.0615 15.9522 73.103 15.9355 73.1411L13.4886 81.6343Z" fill="#223880"/>
<path d="M20.5685 81.0024C19.9881 80.9939 19.4093 80.9393 18.8375 80.8394V83.5105C18.8364 83.5854 18.806 83.6569 18.7526 83.7095C18.6993 83.7621 18.6274 83.7915 18.5525 83.7915H17.7965C17.7604 83.791 17.7247 83.7833 17.6917 83.7688C17.6586 83.7543 17.6287 83.7332 17.6039 83.707C17.579 83.6809 17.5596 83.65 17.5468 83.6162C17.534 83.5824 17.5281 83.5466 17.5295 83.5105V73.3625C17.5295 73.1715 17.5745 73.0835 17.8435 73.0195C18.7376 72.8112 19.6515 72.6998 20.5695 72.6875C22.7775 72.6875 23.8065 74.1134 23.8065 76.3284V77.3914C23.8065 79.7064 22.7305 81.0024 20.5695 81.0024H20.5685ZM22.4945 76.3284C22.4945 74.7784 22.0385 73.7773 20.5695 73.7773C19.9895 73.7788 19.4106 73.8273 18.8385 73.9224V79.7625C19.4108 79.8562 19.9896 79.905 20.5695 79.9084C22.0225 79.9084 22.4945 78.9654 22.4945 77.3914V76.3284Z" fill="#223880"/>
<path d="M25.5504 73.0664C25.5447 73.0299 25.5475 72.9925 25.5585 72.9572C25.5694 72.922 25.5884 72.8898 25.6137 72.863C25.6391 72.8362 25.6703 72.8154 25.7049 72.8024C25.7395 72.7895 25.7766 72.7846 25.8134 72.7883H26.5874C26.6241 72.7857 26.6609 72.7914 26.6953 72.8046C26.7296 72.8179 26.7607 72.8384 26.7862 72.8649C26.8118 72.8914 26.8312 72.9231 26.8432 72.958C26.8551 72.9928 26.8593 73.0298 26.8554 73.0664V78.8515C26.8554 78.8945 26.8824 78.8943 26.8994 78.8603L30.2654 73.0825C30.4294 72.8045 30.5604 72.7883 30.8654 72.7883H31.7274C31.9964 72.7883 32.0864 72.8733 32.0864 73.2023V80.6025C32.089 80.6395 32.084 80.6766 32.0718 80.7116C32.0595 80.7467 32.0403 80.7789 32.0152 80.8063C31.9902 80.8338 31.9598 80.8557 31.926 80.871C31.8921 80.8863 31.8555 80.8947 31.8184 80.8955H31.0504C31.0137 80.8959 30.9774 80.8889 30.9435 80.875C30.9096 80.861 30.8789 80.8401 30.8532 80.8139C30.8275 80.7878 30.8074 80.7567 30.794 80.7226C30.7807 80.6885 30.7743 80.6521 30.7754 80.6154V74.8654C30.7754 74.8094 30.7484 74.8094 30.7174 74.8544L27.3664 80.6645C27.2514 80.8645 27.1304 80.8955 26.8944 80.8955H25.9724C25.9165 80.8959 25.861 80.8851 25.8092 80.864C25.7574 80.8428 25.7103 80.8116 25.6707 80.7722C25.631 80.7328 25.5995 80.6861 25.578 80.6345C25.5565 80.5828 25.5454 80.5273 25.5454 80.4714L25.5504 73.0664Z" fill="#223880"/>
<path d="M38.8465 80.8401C38.2347 80.9472 37.6147 81.0015 36.9935 81.0022C34.9795 81.0022 33.8325 79.5863 33.8325 77.4163V76.2671C33.8325 74.1041 34.9635 72.6831 36.9935 72.6831C37.6148 72.6843 38.2347 72.7392 38.8465 72.8472C39.0845 72.8892 39.1465 72.9641 39.1465 73.1721V73.7053C39.1465 73.8613 38.9925 73.9392 38.8305 73.9272C38.2214 73.8495 37.6076 73.8138 36.9935 73.8203C35.8045 73.8203 35.1435 74.6021 35.1435 76.2671V77.4163C35.1435 79.0713 35.7945 79.8633 36.9935 79.8633C37.6073 79.8645 38.2206 79.831 38.8305 79.7632C38.9925 79.7442 39.1465 79.8182 39.1465 79.9802V80.5103C39.1465 80.7013 39.0845 80.7932 38.8465 80.8362" fill="#223880"/>
<path d="M46.8056 73.8623H44.3586V80.6052C44.3586 80.6829 44.3277 80.7576 44.2728 80.8125C44.2178 80.8674 44.1433 80.8982 44.0656 80.8982H43.3556C43.2772 80.8982 43.2019 80.8675 43.1459 80.8127C43.0898 80.758 43.0574 80.6836 43.0556 80.6052V73.8623H40.6086C40.5697 73.8632 40.531 73.8562 40.4948 73.842C40.4586 73.8279 40.4255 73.8066 40.3976 73.7795C40.3697 73.7525 40.3474 73.7201 40.3321 73.6843C40.3168 73.6485 40.3088 73.6102 40.3086 73.5713V73.0842C40.3086 73.0047 40.3402 72.9283 40.3965 72.8721C40.4527 72.8158 40.529 72.7842 40.6086 72.7842H46.8086C46.8882 72.7842 46.9645 72.8158 47.0207 72.8721C47.077 72.9283 47.1086 73.0047 47.1086 73.0842V73.5713C47.1062 73.6493 47.0736 73.7233 47.0176 73.7776C46.9616 73.8319 46.8866 73.8623 46.8086 73.8623" fill="#223880"/>
<path d="M48.4365 73.0661C48.4313 73.0292 48.4345 72.9915 48.4461 72.956C48.4576 72.9205 48.4771 72.8881 48.503 72.8613C48.529 72.8345 48.5607 72.8139 48.5958 72.8012C48.6309 72.7885 48.6684 72.784 48.7055 72.788H49.4735C49.5102 72.7855 49.5471 72.7912 49.5814 72.8044C49.6158 72.8176 49.6468 72.8382 49.6724 72.8647C49.6979 72.8912 49.7173 72.9229 49.7293 72.9577C49.7412 72.9925 49.7454 73.0295 49.7415 73.0661V78.8513C49.7415 78.8943 49.7685 78.8941 49.7825 78.8601L53.1515 73.0822C53.3135 72.8042 53.4445 72.788 53.7605 72.788H54.6185C54.8875 72.788 54.9775 72.8731 54.9775 73.2021V80.6023C54.9801 80.6393 54.9751 80.6763 54.9629 80.7114C54.9506 80.7465 54.9314 80.7787 54.9064 80.8061C54.8813 80.8335 54.8509 80.8555 54.8171 80.8708C54.7832 80.8861 54.7467 80.8945 54.7095 80.8952H53.9355C53.8994 80.8951 53.8638 80.8875 53.8307 80.8733C53.7976 80.859 53.7677 80.8382 53.7429 80.812C53.7182 80.7858 53.699 80.7547 53.6865 80.7209C53.6741 80.6871 53.6686 80.6512 53.6705 80.6152V74.8652C53.6705 74.8092 53.6415 74.8092 53.6125 74.8542L50.2635 80.6643C50.1405 80.8643 50.0255 80.8952 49.7825 80.8952H48.8695C48.8131 80.8962 48.7572 80.8858 48.7048 80.865C48.6524 80.8441 48.6047 80.8131 48.5645 80.7736C48.5242 80.7342 48.4921 80.6871 48.4702 80.6352C48.4482 80.5833 48.4368 80.5275 48.4365 80.4712V73.0661Z" fill="#223880"/>
<path d="M62.6855 80.8982H61.9695C61.891 80.8982 61.8156 80.8675 61.7595 80.8125C61.7034 80.7575 61.6711 80.6828 61.6695 80.6042V77.5833C60.9546 77.6977 60.2324 77.7602 59.5085 77.7703C57.9505 77.7703 56.6455 77.3471 56.6455 75.4121V73.0842C56.6455 73.0055 56.6764 72.9299 56.7316 72.8738C56.7868 72.8177 56.8618 72.7855 56.9405 72.7842H57.6565C57.735 72.7858 57.8098 72.8182 57.8648 72.8743C57.9197 72.9304 57.9505 73.0057 57.9505 73.0842V75.4121C57.9505 76.4441 58.3935 76.7273 59.7715 76.7273C60.4073 76.7074 61.0415 76.6532 61.6715 76.5652V73.0842C61.6715 73.0047 61.7031 72.9283 61.7594 72.8721C61.8157 72.8158 61.892 72.7842 61.9715 72.7842H62.6875C62.7661 72.7858 62.8408 72.8182 62.8958 72.8743C62.9508 72.9304 62.9815 73.0057 62.9815 73.0842V80.6042C62.9815 80.6822 62.9506 80.7569 62.8954 80.812C62.8403 80.8671 62.7655 80.8982 62.6875 80.8982" fill="#223880"/>
<path d="M70.9966 77.2551H66.0316V77.4641C66.0316 79.2191 66.7256 79.8643 68.0926 79.8643C68.9737 79.8684 69.8542 79.8157 70.7285 79.7063C70.9125 79.6763 71.0446 79.7333 71.0446 79.9062V80.4062C71.0446 80.5982 70.9805 80.6991 70.7445 80.7461C69.8708 80.916 68.9826 81.0003 68.0926 80.9973C66.3926 80.9973 64.7266 80.1973 64.7266 77.4583V76.1262C64.7266 74.0182 65.9005 72.6763 68.0205 72.6763C70.1825 72.6763 71.2826 74.0322 71.2826 76.1262V76.9263C71.2876 76.9666 71.2839 77.0076 71.2717 77.0464C71.2596 77.0852 71.2393 77.1208 71.2122 77.1511C71.1851 77.1814 71.1519 77.2055 71.1147 77.2219C71.0775 77.2383 71.0372 77.2465 70.9966 77.2461V77.2551ZM69.9605 76.1233C69.9605 74.4583 69.3265 73.8123 68.0205 73.8123C66.7485 73.8123 66.0316 74.5343 66.0316 76.1233V76.2583H69.9605V76.1233Z" fill="#223880"/>
<path d="M77.7966 80.8401C77.1861 80.9475 76.5674 81.0018 75.9476 81.0022C73.9296 81.0022 72.7886 79.5863 72.7886 77.4163V76.2671C72.7886 74.1041 73.9156 72.6831 75.9476 72.6831C76.5675 72.684 77.1862 72.739 77.7966 72.8472C78.0346 72.8892 78.0966 72.9641 78.0966 73.1721V73.7053C78.0966 73.8613 77.9426 73.9392 77.7866 73.9272C77.1761 73.8498 76.561 73.8141 75.9456 73.8203C74.7586 73.8203 74.0916 74.6021 74.0916 76.2671V77.4163C74.0916 79.0713 74.7426 79.8633 75.9456 79.8633C76.5606 79.8642 77.1753 79.8307 77.7866 79.7632C77.9426 79.7442 78.0966 79.8182 78.0966 79.9802V80.5103C78.0966 80.7013 78.0326 80.7932 77.7966 80.8362" fill="#223880"/>
<path d="M85.4246 80.8982H84.3556C84.1906 80.8982 84.1296 80.8533 84.0126 80.7053L81.0606 77.0781V80.6042C81.0607 80.6428 81.0532 80.6809 81.0386 80.7166C81.0239 80.7522 81.0023 80.7847 80.9751 80.812C80.9479 80.8393 80.9156 80.8609 80.8799 80.8757C80.8443 80.8905 80.8061 80.8982 80.7676 80.8982H80.0506C79.9732 80.8964 79.8996 80.8648 79.845 80.8101C79.7904 80.7553 79.7591 80.6816 79.7576 80.6042V73.0842C79.7575 73.0059 79.7882 72.9306 79.843 72.8745C79.8977 72.8184 79.9722 72.786 80.0506 72.7842H80.7676C80.8066 72.7843 80.8452 72.7922 80.8812 72.8074C80.9171 72.8226 80.9497 72.8449 80.977 72.8728C81.0042 72.9007 81.0257 72.9337 81.04 72.97C81.0544 73.0063 81.0614 73.0452 81.0606 73.0842V76.2412L84.0306 72.9202C84.0629 72.874 84.1071 72.8374 84.1585 72.8142C84.2099 72.791 84.2665 72.7818 84.3226 72.7881H85.3606C85.5126 72.7881 85.5826 72.8622 85.5826 72.9512C85.5803 73.0114 85.5553 73.0685 85.5126 73.1111L82.2516 76.6211L85.5376 80.5742C85.5682 80.6109 85.5842 80.6576 85.5826 80.7053C85.5852 80.7284 85.5832 80.7516 85.5766 80.7739C85.57 80.7962 85.5591 80.817 85.5443 80.835C85.5296 80.853 85.5114 80.8678 85.4908 80.8787C85.4703 80.8895 85.4478 80.8962 85.4246 80.8982Z" fill="#223880"/>
<path d="M89.3905 81.0015C87.2125 81.0015 86.1025 79.5745 86.1025 77.4075V76.2825C86.1025 74.1155 87.2125 72.6885 89.3905 72.6885C91.5685 72.6885 92.6986 74.1155 92.6986 76.2825V77.4075C92.6986 79.5745 91.5745 81.0015 89.3905 81.0015ZM91.3955 76.2825C91.3955 74.7825 90.7875 73.8215 89.3905 73.8215C88.0105 73.8215 87.4055 74.7635 87.4055 76.2825V77.4075C87.4055 78.9075 88.0055 79.8645 89.3905 79.8645C90.7755 79.8645 91.3955 78.9195 91.3955 77.4075V76.2825Z" fill="#223880"/>
<path d="M100.455 77.2551H95.4885V77.4641C95.4885 79.2191 96.1814 79.8643 97.5444 79.8643C98.4269 79.8683 99.3088 79.8156 100.184 79.7063C100.362 79.6763 100.494 79.7333 100.494 79.9062V80.4062C100.494 80.5982 100.438 80.6991 100.202 80.7461C99.3267 80.9158 98.4365 81.0001 97.5444 80.9973C95.8444 80.9973 94.1785 80.1973 94.1785 77.4583V76.1262C94.1785 74.0182 95.3525 72.6763 97.4705 72.6763C99.6385 72.6763 100.732 74.0322 100.732 76.1262V76.9263C100.738 76.9659 100.734 77.006 100.723 77.0442C100.711 77.0824 100.692 77.118 100.665 77.1482C100.639 77.1784 100.607 77.2026 100.571 77.2195C100.535 77.2364 100.495 77.2454 100.455 77.2461V77.2551ZM99.4125 76.1233C99.4125 74.4583 98.7765 73.8123 97.4705 73.8123C96.1985 73.8123 95.4885 74.5343 95.4885 76.1233V76.2583H99.4125V76.1233Z" fill="#223880"/>
<path d="M112.427 80.8081C111.616 80.9633 110.791 81.0305 109.966 81.0083C108.139 81.0083 106.05 80.0372 106.05 76.4512V74.4011C106.05 70.7931 108.139 69.8442 109.966 69.8442C110.802 69.8595 111.635 69.9385 112.46 70.0803C112.591 70.0973 112.696 70.1422 112.696 70.2732V71.0251C112.696 71.1251 112.653 71.2013 112.47 71.1853C111.938 71.1463 110.838 71.0532 109.98 71.0532C108.529 71.0532 107.402 71.8971 107.402 74.4011V76.4512C107.402 78.9272 108.529 79.7993 109.98 79.7993C110.828 79.7993 111.895 79.7251 112.427 79.6821C112.627 79.6681 112.727 79.7253 112.727 79.9163V80.5222C112.727 80.7022 112.595 80.7862 112.427 80.8132" fill="#223880"/>
<path d="M119.635 73.8623H117.184V80.6052C117.184 80.6439 117.176 80.6821 117.161 80.7178C117.146 80.7535 117.124 80.7858 117.097 80.813C117.07 80.8402 117.037 80.8619 117.001 80.8765C116.966 80.8911 116.927 80.8985 116.889 80.8982H116.176C116.097 80.8982 116.022 80.8675 115.966 80.8127C115.91 80.758 115.877 80.6836 115.876 80.6052V73.8623H113.435C113.356 73.8623 113.282 73.8319 113.226 73.7776C113.17 73.7233 113.137 73.6493 113.135 73.5713V73.0842C113.135 73.0047 113.166 72.9283 113.222 72.8721C113.279 72.8158 113.355 72.7842 113.435 72.7842H119.635C119.714 72.7842 119.79 72.8158 119.847 72.8721C119.903 72.9283 119.935 73.0047 119.935 73.0842V73.5713C119.932 73.6493 119.9 73.7233 119.844 73.7776C119.787 73.8319 119.713 73.8623 119.635 73.8623Z" fill="#223880"/>
<path d="M124.297 81.0024C123.714 80.9939 123.133 80.9394 122.56 80.8394V83.5105C122.56 83.5474 122.553 83.584 122.539 83.6182C122.524 83.6523 122.504 83.6834 122.478 83.7095C122.452 83.7356 122.421 83.7562 122.386 83.7703C122.352 83.7843 122.316 83.7916 122.279 83.7915H121.526C121.489 83.7917 121.453 83.7845 121.42 83.7703C121.386 83.7561 121.356 83.735 121.331 83.7087C121.306 83.6824 121.286 83.6513 121.273 83.6172C121.261 83.5831 121.255 83.5469 121.257 83.5105V73.3625C121.257 73.1715 121.306 73.0835 121.569 73.0195C122.463 72.8115 123.378 72.7001 124.297 72.6875C126.507 72.6875 127.529 74.1134 127.529 76.3284V77.3914C127.529 79.7064 126.462 81.0024 124.297 81.0024ZM126.226 76.3284C126.226 74.7784 125.766 73.7773 124.297 73.7773C123.715 73.7792 123.134 73.8277 122.56 73.9224V79.7625C123.134 79.8561 123.715 79.9049 124.297 79.9084C125.752 79.9084 126.226 78.9654 126.226 77.3914V76.3284Z" fill="#223880"/>
<path d="M134.663 80.8972H133.981C133.902 80.8973 133.827 80.8665 133.771 80.8118C133.715 80.757 133.682 80.6826 133.681 80.6043V80.2803C132.998 80.7217 132.208 80.971 131.396 81.0022C131.071 81.0441 130.741 81.0113 130.43 80.9065C130.12 80.8017 129.838 80.6276 129.605 80.3972C129.372 80.1669 129.194 79.8866 129.086 79.5774C128.978 79.2683 128.941 78.9386 128.98 78.6133V78.4363C128.98 76.8423 129.912 76.0493 132.554 76.0493H133.654V75.4563C133.654 74.2143 133.225 73.7913 132.067 73.7913C131.308 73.7898 130.549 73.8288 129.795 73.9082C129.633 73.9212 129.455 73.8922 129.455 73.6702V73.1553C129.455 72.9933 129.555 72.9093 129.764 72.8743C130.523 72.745 131.293 72.6824 132.064 72.6873C134.123 72.6873 134.954 73.7163 134.954 75.4563V80.6043C134.952 80.6826 134.919 80.757 134.863 80.8118C134.807 80.8665 134.732 80.8973 134.654 80.8972H134.663ZM133.648 76.9773H132.548C130.754 76.9773 130.28 77.3712 130.28 78.4202V78.5962C130.28 79.6622 130.78 79.9392 131.643 79.9392C132.349 79.9181 133.038 79.7151 133.643 79.3501L133.648 76.9773Z" fill="#223880"/>
<path d="M143.346 80.8982H142.326C142.283 80.902 142.24 80.893 142.203 80.8721C142.166 80.8512 142.136 80.8195 142.117 80.7812L139.997 77.7002L137.875 80.7522C137.793 80.8862 137.76 80.8982 137.629 80.8982H136.736C136.545 80.8982 136.498 80.7521 136.636 80.5591L139.306 76.7722L136.788 73.1562C136.636 72.9342 136.741 72.7881 136.934 72.7881H137.898C138.022 72.7881 138.091 72.8301 138.198 72.9941L140.078 75.7693L141.978 72.9941C142.109 72.8031 142.156 72.7881 142.294 72.7881H143.154C143.345 72.7881 143.398 72.9653 143.267 73.1562L140.777 76.6802L143.492 80.5591C143.592 80.7051 143.592 80.8982 143.355 80.8982" fill="#223880"/>
<path d="M147.661 81.0015C145.485 81.0015 144.369 79.5745 144.369 77.4075V76.2825C144.369 74.1155 145.485 72.6885 147.661 72.6885C149.837 72.6885 150.972 74.1155 150.972 76.2825V77.4075C150.972 79.5745 149.839 81.0015 147.661 81.0015ZM149.661 76.2825C149.661 74.7825 149.056 73.8215 147.661 73.8215C146.284 73.8215 145.678 74.7635 145.678 76.2825V77.4075C145.678 78.9075 146.265 79.8645 147.661 79.8645C149.04 79.8645 149.661 78.9195 149.661 77.4075V76.2825Z" fill="#223880"/>
<path d="M155.338 81.0032C154.806 81.0032 153.638 80.9721 153.138 80.9131C152.847 80.8861 152.716 80.7672 152.716 80.5022V73.1853C152.712 73.1297 152.72 73.0739 152.739 73.0215C152.758 72.9691 152.787 72.9213 152.826 72.8811C152.865 72.8409 152.911 72.8092 152.963 72.7881C153.014 72.7669 153.07 72.7568 153.126 72.7583C153.553 72.7173 154.372 72.6821 155.487 72.6821C157.161 72.6821 159.003 72.9823 159.003 74.8823V74.9563C159.019 75.3181 158.926 75.6764 158.735 75.9841C158.544 76.2919 158.264 76.5346 157.933 76.6802C158.284 76.8105 158.586 77.0496 158.793 77.3625C159 77.6755 159.102 78.0462 159.085 78.4211V78.5212C159.085 80.3662 157.485 81.0022 155.333 81.0022L155.338 81.0032ZM157.677 74.8811C157.677 73.9811 156.899 73.7441 155.394 73.7441C154.947 73.7441 154.372 73.7442 154.013 73.7612V76.1912H155.867C156.756 76.1912 157.677 76.0913 157.677 74.9553V74.8811ZM157.769 78.4202C157.769 77.2712 156.743 77.1953 155.869 77.1953H154.014V79.9221C154.461 79.9391 154.849 79.9553 155.295 79.9553C157.101 79.9553 157.77 79.5122 157.77 78.5212L157.769 78.4202Z" fill="#223880"/>
<path d="M166.296 80.8973H165.613C165.534 80.8973 165.459 80.8666 165.403 80.8118C165.347 80.7571 165.314 80.6827 165.312 80.6043V80.2803C164.63 80.7211 163.841 80.9704 163.03 81.0023C162.704 81.0447 162.374 81.0124 162.063 80.9078C161.752 80.8032 161.47 80.6291 161.236 80.3987C161.003 80.1684 160.826 79.8878 160.717 79.5784C160.609 79.269 160.572 78.939 160.61 78.6133V78.4363C160.61 76.8423 161.544 76.0494 164.186 76.0494H165.28V75.4564C165.28 74.2144 164.848 73.7913 163.692 73.7913C162.935 73.79 162.178 73.829 161.424 73.9083C161.266 73.9213 161.082 73.8922 161.082 73.6702V73.1553C161.082 72.9933 161.188 72.9093 161.398 72.8743C162.156 72.7446 162.924 72.682 163.692 72.6873C165.753 72.6873 166.587 73.7164 166.587 75.4564V80.6043C166.587 80.643 166.579 80.6812 166.564 80.7169C166.549 80.7525 166.527 80.7848 166.5 80.8121C166.473 80.8393 166.44 80.8609 166.404 80.8756C166.368 80.8902 166.33 80.8975 166.291 80.8973H166.296ZM165.28 76.9774H164.186C162.394 76.9774 161.921 77.3712 161.921 78.4202V78.5963C161.921 79.6623 162.421 79.9393 163.28 79.9393C163.987 79.9193 164.676 79.7162 165.28 79.3502L165.28 76.9774Z" fill="#223880"/>
<path d="M174.851 80.8982H174.135C174.096 80.8981 174.058 80.8903 174.022 80.8755C173.987 80.8606 173.955 80.8391 173.928 80.8118C173.9 80.7845 173.879 80.7519 173.864 80.7163C173.85 80.6807 173.842 80.6427 173.843 80.6042V77.3162H169.911V80.6042C169.909 80.6828 169.877 80.7575 169.821 80.8125C169.764 80.8675 169.689 80.8982 169.611 80.8982H168.901C168.862 80.8981 168.824 80.8903 168.788 80.8755C168.753 80.8606 168.721 80.8391 168.694 80.8118C168.666 80.7845 168.645 80.7519 168.63 80.7163C168.616 80.6807 168.608 80.6427 168.609 80.6042V73.0842C168.608 73.006 168.639 72.9308 168.694 72.8748C168.748 72.8187 168.822 72.7863 168.901 72.7842H169.611C169.69 72.7842 169.766 72.8158 169.823 72.8721C169.879 72.9283 169.911 73.0047 169.911 73.0842V76.2083H173.843V73.0842C173.843 73.006 173.873 72.9308 173.928 72.8748C173.982 72.8187 174.056 72.7863 174.135 72.7842H174.851C174.929 72.7858 175.004 72.8182 175.059 72.8743C175.114 72.9304 175.145 73.0057 175.145 73.0842V80.6042C175.143 80.6817 175.112 80.7555 175.057 80.8103C175.002 80.8651 174.928 80.8967 174.851 80.8982Z" fill="#223880"/>
<path d="M177.161 73.0662C177.155 73.0298 177.158 72.9925 177.169 72.9573C177.18 72.9222 177.199 72.8899 177.224 72.8631C177.25 72.8363 177.281 72.8158 177.315 72.8028C177.35 72.7898 177.387 72.7847 177.424 72.7882H178.198C178.234 72.7858 178.271 72.7915 178.305 72.8048C178.34 72.818 178.37 72.8386 178.396 72.8651C178.421 72.8915 178.441 72.9233 178.453 72.9581C178.465 72.9928 178.469 73.0297 178.466 73.0662V78.8514C178.466 78.8944 178.491 78.8942 178.509 78.8602L181.876 73.0823C182.038 72.8043 182.169 72.7882 182.476 72.7882H183.333C183.604 72.7882 183.693 72.8732 183.693 73.2022V80.6024C183.696 80.6394 183.691 80.6765 183.679 80.7117C183.667 80.7469 183.648 80.7792 183.623 80.8067C183.598 80.8342 183.567 80.8564 183.533 80.8717C183.499 80.8869 183.463 80.8949 183.426 80.8953H182.655C182.618 80.8952 182.583 80.8879 182.549 80.8736C182.516 80.8593 182.486 80.8385 182.461 80.8123C182.436 80.7862 182.417 80.7551 182.404 80.7213C182.392 80.6874 182.386 80.6514 182.388 80.6153V74.8653C182.388 74.8093 182.361 74.8093 182.326 74.8543L178.977 80.6644C178.862 80.8644 178.741 80.8953 178.504 80.8953H177.585C177.529 80.8957 177.473 80.8849 177.421 80.8638C177.369 80.8427 177.322 80.8117 177.282 80.7723C177.242 80.7329 177.21 80.686 177.189 80.6343C177.167 80.5827 177.156 80.5273 177.156 80.4713L177.161 73.0662Z" fill="#223880"/>
<path d="M191.718 77.2551H186.75V77.4641C186.75 79.2191 187.45 79.8643 188.811 79.8643C189.693 79.8682 190.575 79.8155 191.451 79.7063C191.629 79.6763 191.76 79.7333 191.76 79.9062V80.4062C191.76 80.5982 191.704 80.6991 191.466 80.7461C190.591 80.9156 189.702 80.9999 188.811 80.9973C187.106 80.9973 185.443 80.1973 185.443 77.4583V76.1262C185.443 74.0182 186.614 72.6763 188.734 72.6763C190.902 72.6763 191.997 74.0322 191.997 76.1262V76.9263C191.997 77.1143 191.897 77.2461 191.718 77.2461V77.2551ZM190.679 76.1233C190.679 74.4583 190.038 73.8123 188.734 73.8123C187.46 73.8123 186.75 74.5343 186.75 76.1233V76.2583H190.679V76.1233Z" fill="#223880"/>
</svg>
