<svg width="18" height="25" viewBox="0 0 18 25" fill="none" xmlns="http://www.w3.org/2000/svg">
<path d="M9.09375 0.5C7.875 0.5 6.70312 0.75 5.57812 1.25C4.46875 1.73437 3.50781 2.39062 2.69531 3.21875C1.88281 4.03125 1.22656 5 0.726562 6.125C0.242188 7.25 0 8.42188 0 9.64062C0 10.3281 0.09375 11.0469 0.28125 11.7969C0.46875 12.5469 0.6875 13.2422 0.9375 13.8828C1.1875 14.5234 1.54688 15.2344 2.01562 16.0156C2.48438 16.7969 2.89844 17.4609 3.25781 18.0078C3.63281 18.5391 4.13281 19.1953 4.75781 19.9766C5.38281 20.7422 5.86719 21.3281 6.21094 21.7344C6.55469 22.1406 7.03906 22.7031 7.66406 23.4219C7.85156 23.6406 7.99219 23.7969 8.08594 23.8906C8.11719 23.9375 8.17188 23.9922 8.25 24.0547C8.32812 24.1328 8.46875 24.2266 8.67188 24.3359C8.875 24.4453 9.07031 24.5 9.25781 24.5H9.32812C9.76562 24.5 10.1562 24.2969 10.5 23.8906C15.5 18.1406 18 13.3906 18 9.64062C18 7.03125 17.2031 4.86719 15.6094 3.14844C13.9531 1.38281 11.7812 0.5 9.09375 0.5ZM9.375 22.8828C9.35938 22.9141 9.32812 22.9453 9.28125 22.9766C9.25 22.9453 9.21875 22.9141 9.1875 22.8828L8.78906 22.4375C8.19531 21.75 7.73438 21.2188 7.40625 20.8438C7.07812 20.4531 6.61719 19.8906 6.02344 19.1562C5.42969 18.4219 4.96094 17.8047 4.61719 17.3047C4.27344 16.7891 3.875 16.1719 3.42188 15.4531C2.96875 14.7188 2.61719 14.0625 2.36719 13.4844C2.13281 12.8906 1.92969 12.2578 1.75781 11.5859C1.58594 10.8984 1.5 10.25 1.5 9.64062C1.5 8.28125 1.84375 7.01562 2.53125 5.84375C3.21875 4.65625 4.14062 3.71875 5.29688 3.03125C6.46875 2.34375 7.73438 2 9.09375 2C10.3281 2 11.4297 2.21875 12.3984 2.65625C13.3672 3.07812 14.1406 3.65625 14.7188 4.39062C15.3125 5.125 15.7578 5.9375 16.0547 6.82812C16.3516 7.71875 16.5 8.65625 16.5 9.64062C16.5 13.0156 14.125 17.4297 9.375 22.8828ZM9.02344 5.02344C8.53906 5.02344 8.0625 5.10156 7.59375 5.25781C7.14062 5.41406 6.72656 5.63281 6.35156 5.91406C5.99219 6.17969 5.67188 6.5 5.39062 6.875C5.10938 7.25 4.89062 7.66406 4.73438 8.11719C4.59375 8.57031 4.52344 9.03906 4.52344 9.52344C4.52344 10.7734 4.96094 11.8359 5.83594 12.7109C6.72656 13.5859 7.78906 14.0234 9.02344 14.0234C10.2734 14.0234 11.3359 13.5859 12.2109 12.7109C13.0859 11.8359 13.5234 10.7734 13.5234 9.52344C13.5234 8.91406 13.4062 8.33594 13.1719 7.78906C12.9375 7.22656 12.6172 6.75 12.2109 6.35938C11.8047 5.95312 11.3203 5.63281 10.7578 5.39844C10.2109 5.14844 9.63281 5.02344 9.02344 5.02344ZM9.02344 12.5234C8.19531 12.5234 7.48438 12.2266 6.89062 11.6328C6.29688 11.0391 6 10.3281 6 9.5C6 8.67188 6.28906 7.96875 6.86719 7.39062C7.46094 6.79687 8.17188 6.5 9 6.5C9.82812 6.5 10.5312 6.79687 11.1094 7.39062C11.7031 7.96875 12 8.67188 12 9.5C12 10.5312 11.5859 11.3516 10.7578 11.9609C10.2422 12.3359 9.66406 12.5234 9.02344 12.5234Z" fill="#BEB400"/>
</svg>
