<svg width="180" height="80" viewBox="0 0 180 80" fill="none" xmlns="http://www.w3.org/2000/svg">
<path fill-rule="evenodd" clip-rule="evenodd" d="M93.484 37.4571H101.019C101.088 37.4487 101.158 37.4561 101.224 37.4787C101.289 37.5014 101.349 37.5387 101.398 37.5878C101.447 37.637 101.485 37.6967 101.507 37.7624C101.53 37.8281 101.537 37.8981 101.529 37.9671V40.5581C101.537 40.627 101.53 40.6969 101.507 40.7625C101.484 40.8281 101.447 40.8877 101.398 40.9368C101.349 40.9859 101.289 41.0232 101.224 41.046C101.158 41.0687 101.088 41.0763 101.019 41.0681H93.484V43.6681C93.4249 44.215 93.5781 44.7638 93.912 45.2011C94.1095 45.3669 94.3386 45.4908 94.5855 45.5652C94.8324 45.6397 95.0918 45.6631 95.348 45.6341H98.084C99.5866 45.6494 101.089 45.5826 102.584 45.4341C102.872 45.4341 103.031 45.5981 103.031 45.9521C103.088 46.8984 102.972 47.8472 102.689 48.7521C102.64 48.8686 102.558 48.9684 102.453 49.0393C102.349 49.1103 102.225 49.1495 102.099 49.1521C100.998 49.2673 99.8912 49.321 98.784 49.3131H95.308C91.897 49.3131 89.051 48.5131 89.03 43.7851V35.0181C89.051 30.2891 91.897 29.4841 95.308 29.4841H98.789C99.8961 29.4771 101.003 29.5308 102.104 29.6451C102.23 29.6483 102.353 29.6876 102.458 29.7586C102.562 29.8295 102.644 29.9289 102.694 30.0451C102.977 30.9499 103.093 31.8987 103.036 32.8451C103.036 33.2011 102.877 33.3631 102.589 33.3631C101.094 33.2145 99.5915 33.1478 98.089 33.1631H95.348C95.0918 33.134 94.8324 33.1574 94.5855 33.2319C94.3386 33.3063 94.1095 33.4302 93.912 33.5961C93.578 34.0344 93.4248 34.5841 93.484 35.1321V37.4571ZM113.048 38.9181C115.888 38.9181 116.77 37.3321 116.77 35.8181C116.77 34.3041 115.763 32.9541 113.048 32.9541C111.923 32.9541 110.73 33.0541 110.73 33.0541V38.8221C110.73 38.8221 111.83 38.9221 113.048 38.9221V38.9181ZM113.248 42.2731C111.999 42.2731 110.73 42.1731 110.73 42.1731V48.8121C110.738 48.881 110.731 48.9508 110.708 49.0164C110.685 49.082 110.648 49.1415 110.599 49.1906C110.55 49.2396 110.49 49.2768 110.424 49.2994C110.359 49.322 110.289 49.3294 110.22 49.3211H106.914C106.845 49.3293 106.775 49.3217 106.71 49.2991C106.644 49.2764 106.585 49.2391 106.536 49.1901C106.487 49.1411 106.45 49.0816 106.427 49.0161C106.404 48.9507 106.397 48.8809 106.405 48.8121V30.7821C106.434 29.9351 106.651 29.7821 107.458 29.6721C108.763 29.5285 110.075 29.4637 111.388 29.4781H113.248C117.736 29.5001 121.148 31.3781 121.148 35.8781C121.199 37.0033 120.918 38.1186 120.338 39.0843C119.758 40.0499 118.905 40.8228 117.888 41.3061L122.373 48.7691C122.541 49.0481 122.429 49.3191 122.064 49.3191H118.04C117.885 49.3373 117.727 49.3069 117.59 49.232C117.453 49.1572 117.342 49.0415 117.273 48.9011L113.624 42.2661L113.248 42.2731ZM139.682 30.0001C139.789 30.0538 139.876 30.139 139.933 30.2442C139.99 30.3493 140.013 30.4693 140 30.5881C140 37.2161 136.223 45.4371 135.2 47.2291C134.388 48.6491 133.572 49.3161 132.177 49.3161H130.819C129.373 49.3161 128.555 48.6501 127.742 47.2301C126.716 45.4381 123.142 37.2171 123.142 30.5891C123.129 30.4703 123.152 30.3503 123.209 30.2452C123.266 30.14 123.353 30.0548 123.46 30.0011C124.149 29.5861 125.274 29.4891 127.2 29.4891C127.488 29.4891 127.7 29.5841 127.721 29.9351C128.049 35.3908 129.409 40.7348 131.728 45.6841C134.054 40.7368 135.418 35.3921 135.747 29.9351C135.76 29.5841 135.976 29.4891 136.266 29.4891C137.431 29.3751 138.606 29.551 139.687 30.0011" fill="#223880"/>
<path d="M65.868 22.022C69.8348 22.9421 73.3799 25.1623 75.9396 28.3294C78.4993 31.4964 79.9264 35.4285 79.994 39.5C79.9271 43.5717 78.5002 47.5041 75.9404 50.6713C73.3807 53.8385 69.8351 56.0585 65.868 56.978C65.7313 57.0103 65.5878 56.9936 65.4621 56.931C65.3365 56.8683 65.2369 56.7636 65.1805 56.635C65.1241 56.5065 65.1146 56.3622 65.1536 56.2274C65.1926 56.0925 65.2777 55.9756 65.394 55.897C68.1831 54.1652 70.4844 51.7506 72.0801 48.8814C73.6759 46.0123 74.5134 42.7835 74.5134 39.5005C74.5134 36.2175 73.6759 32.9887 72.0801 30.1196C70.4844 27.2504 68.1831 24.8358 65.394 23.104C65.2769 23.0257 65.1912 22.9087 65.1517 22.7735C65.1123 22.6383 65.1216 22.4936 65.1781 22.3646C65.2346 22.2356 65.3347 22.1306 65.4608 22.068C65.5869 22.0054 65.731 21.9891 65.868 22.022Z" fill="#BEB400"/>
<path d="M68.2889 38.8149C68.4417 42.0427 67.4856 45.2256 65.5793 47.8348C63.673 50.444 60.9314 52.3224 57.8099 53.158C54.6884 53.9936 51.375 53.736 48.4202 52.428C45.4654 51.12 43.047 48.8404 41.5669 45.9679C43.5059 48.8849 49.7329 49.8379 56.4429 48.0419C63.1529 46.2459 68.0699 42.3109 68.2889 38.8149Z" fill="#223880"/>
<path d="M40.3749 42.7109L40.3329 42.5329C39.9645 40.8705 39.9015 39.1549 40.1469 37.4699C40.1559 37.5279 40.1689 37.5849 40.1839 37.6429C40.8479 40.1179 47.0109 40.6159 53.9529 38.7569C60.8949 36.8979 65.9829 33.3849 65.3209 30.9109C65.3061 30.8535 65.2877 30.7971 65.2659 30.7419C66.3216 32.0793 67.1256 33.5973 67.6389 35.2219L67.6909 35.3969C68.7389 39.3079 63.4769 44.1129 55.9309 46.1329C48.3849 48.1529 41.4229 46.6199 40.3749 42.7109Z" fill="#223880"/>
<path d="M40.6611 36.0199C40.5852 35.7113 40.6018 35.3871 40.7091 35.0879C41.444 32.8557 42.7231 30.8416 44.431 29.2273C46.1389 27.6129 48.2218 26.4492 50.4919 25.8411C52.7619 25.2329 55.1476 25.1995 57.4338 25.7438C59.72 26.2881 61.8347 27.393 63.5871 28.9589C63.8301 29.1646 64.0065 29.4378 64.0941 29.7439C64.6791 31.9229 59.9081 35.0959 53.4361 36.8289C46.9641 38.5619 41.2461 38.1999 40.6611 36.0199Z" fill="#223880"/>
</svg>
